<svg width="101" height="101" viewBox="0 0 101 101" fill="none" xmlns="http://www.w3.org/2000/svg">
<line x1="38.358" y1="13.2896" x2="62.7263" y2="88.4374" stroke="white" stroke-opacity="0.12"/>
<path d="M23.9065 78.949L76.5608 20.8755" stroke="white" stroke-opacity="0.12"/>
<path d="M88.5907 57.9738L11.8766 41.8508" stroke="white" stroke-opacity="0.12"/>
<path d="M76.7834 21.1062L88.9438 58.6067L62.5482 87.8884L23.9921 79.6687L11.8317 42.1682L38.2272 12.8865L76.7834 21.1062Z" stroke="white" stroke-opacity="0.12"/>
<path d="M70.0878 28.5337L79.1636 56.5218L59.4637 78.376L30.6876 72.2412L21.6119 44.2531L41.3118 22.3988L70.0878 28.5337Z" stroke="white" stroke-opacity="0.12"/>
<path d="M64.7317 34.4755L71.3398 54.8538L56.996 70.7661L36.0437 66.2993L29.4356 45.9211L43.7795 30.0087L64.7317 34.4755Z" stroke="white" stroke-opacity="0.12"/>
<path d="M60.0445 39.6749L64.4933 53.3945L54.8368 64.1074L40.731 61.0999L36.2821 47.3804L45.9387 36.6674L60.0445 39.6749Z" stroke="white" stroke-opacity="0.12"/>
<path d="M56.6967 43.3887L59.6033 52.352L53.2945 59.3513L44.0788 57.3862L41.1722 48.4228L47.481 41.4236L56.6967 43.3887Z" stroke="white" stroke-opacity="0.12"/>
<path d="M54.0187 46.3596L55.6914 51.518L52.0606 55.5463L46.7568 54.4152L45.0841 49.2568L48.7149 45.2285L54.0187 46.3596Z" stroke="white" stroke-opacity="0.12"/>
</svg>
