<svg width="1500" height="1500" viewBox="0 0 1500 1500" fill="none" xmlns="http://www.w3.org/2000/svg">
<circle cx="746" cy="740" r="600" fill="#0F1115"/>
<path d="M153 741.5H1340" stroke="#092C4E" stroke-width="8"/>
<path d="M963 1298.31C963 1271.85 958.792 1235.84 948.013 1211.39C937.233 1186.94 921.433 1164.73 901.515 1146.02C881.597 1127.31 857.951 1112.47 831.926 1102.34C805.902 1092.21 778.009 1087 749.841 1087C721.672 1087 693.779 1092.21 667.755 1102.34C641.731 1112.47 618.084 1127.31 598.166 1146.02C578.248 1164.73 562.448 1186.94 551.668 1211.39C540.889 1235.84 534 1270.88 534 1297.34L534.405 1297.52L534.81 1297.69L535.62 1298.04L537.24 1298.74L540.48 1300.11L540.885 1300.28L541.29 1300.45L542.1 1300.79L543.72 1301.46L546.959 1302.78L548.579 1303.46L550.199 1304.09L553.439 1305.35L559.919 1307.85L566.622 1310.29L573.325 1312.74L586.731 1317.11L600.361 1321.19L607.287 1323.12L613.991 1324.91L620.47 1326.53L623.71 1327.3L626.95 1328.07L632.759 1329.39L635.888 1330.08L638.569 1330.64L648.4 1332.6L656.444 1334.06L664.488 1335.39L672.531 1336.61L683.256 1338.08L693.758 1339.24L704.259 1340.22L725.709 1341.55L739.116 1342H752.522L770.844 1341.55L781.569 1341.11L811.956 1338.45L826.703 1336.29L832.513 1335.4L835.417 1334.93L843.684 1333.53L864.688 1329.69L894.181 1322.38L923.228 1313.47L943.337 1306.34L963 1298.31Z" fill="#092C4E"/>
<path d="M530 180.67C530 207.131 534.208 242.161 544.987 266.609C555.767 291.056 571.567 313.27 591.485 331.981C611.403 350.692 635.049 365.535 661.074 375.661C687.098 385.788 714.991 391 743.159 391C771.328 391 799.221 385.788 825.245 375.661C851.269 365.535 874.916 350.692 894.834 331.981C914.752 313.27 930.552 291.056 941.332 266.609C952.111 242.161 959 207.122 959 180.661L958.595 180.482L958.19 180.313L957.38 179.956L955.76 179.261L952.52 177.888L952.115 177.718L951.71 177.549L950.9 177.21L949.28 176.541L946.041 175.222L944.421 174.544L942.801 173.911L939.561 172.645L933.081 170.149L926.378 167.706L919.675 165.263L906.269 160.894L892.639 156.81L885.713 154.884L879.009 153.092L872.53 151.469L869.29 150.698L866.05 149.927L860.241 148.607L857.112 147.921L854.431 147.359L844.6 145.398L836.556 143.935L828.512 142.607L820.469 141.385L809.744 139.923L799.242 138.764L788.741 137.783L767.291 136.446L753.884 136H740.478L722.156 136.446L711.431 136.892L681.044 139.549L666.297 141.706L660.487 142.598V148.928H650.209L630.1 154.278L599.712 159.628L570.219 166.76L550.556 172.556L530 180.67Z" fill="#092C4E"/>
<path d="M750.821 1337L768.056 1336.58L778.158 1336.16V1336.16L797.574 1335.32L816.467 1333.32L826.121 1331.66V1331.66L831.032 1330.8L838.123 1329.49V1329.49L850.145 1327.27L867.415 1323.72L883.744 1319.75L911.685 1311.77L930.183 1305.6L946.965 1298.89C946.48 1274.51 940.859 1241.46 931.442 1220.06C921.509 1197.49 906.94 1176.96 888.553 1159.65C870.164 1142.34 848.317 1128.6 824.253 1119.21C800.188 1109.83 774.387 1105 748.323 1105C722.26 1105 696.458 1109.83 672.394 1119.21C648.329 1128.6 626.482 1142.34 608.094 1159.65C589.706 1176.96 575.138 1197.49 565.204 1220.06C555.684 1241.7 548.613 1274.12 548.039 1298.26L548.053 1298.27L549.586 1298.81L549.746 1298.87L549.902 1298.94L552.133 1299.91L552.382 1300.02L552.641 1300.08L552.855 1300.13L553.064 1300.2L554.404 1300.64L554.45 1300.66L554.496 1300.68L556.282 1301.31L556.364 1301.34L556.446 1301.37L558.231 1302.08L558.436 1302.16L560.232 1303.06L562.271 1303.87L564.356 1304.71L569.586 1306.45L576.283 1308.68L576.334 1308.7L576.384 1308.72L582.543 1310.92L595.293 1314.87L607.736 1318.43L614.39 1320.2L620.954 1321.95L626.642 1323.16L626.693 1323.17L626.744 1323.18L629.844 1323.91L629.845 1323.91L632.902 1324.61L638.634 1325.78L638.635 1325.78L641.292 1326.31L643.954 1326.82L643.953 1326.82L653.277 1328.59L661.611 1329.91L668.138 1330.77L668.187 1330.78L668.234 1330.79L675.822 1331.94L685.874 1333.32L695.699 1334.4L705.548 1335.32L725.711 1336.58L738.244 1337H750.821Z" fill="#5795A0" fill-opacity="0.56" stroke="white" stroke-width="10"/>
<path d="M744.953 141.631L762.189 141.998L772.292 142.386L772.292 142.387L791.711 143.164L810.61 145.103L820.27 146.736L820.27 146.737L825.184 147.575L832.281 148.864L844.246 151.041L844.247 151.041L861.569 154.537L877.936 158.464L905.896 166.358L924.414 172.466L941.217 179.126C940.808 203.507 935.291 236.575 925.942 258.004C916.079 280.61 901.575 301.188 883.241 318.555C864.907 335.921 843.103 349.735 819.068 359.194C795.033 368.652 769.246 373.565 743.183 373.647C717.119 373.728 691.302 368.977 667.208 359.67C643.114 350.363 621.224 336.686 602.781 319.434C584.339 302.183 569.706 281.696 559.701 259.153C550.114 237.55 542.94 205.153 542.291 181.005L542.303 180.999L543.836 180.45L543.996 180.393L544.152 180.324L546.382 179.348L546.381 179.347L546.626 179.24L546.887 179.177L547.102 179.126L547.31 179.055L548.649 178.605L548.74 178.573L550.525 177.933L550.607 177.903L550.688 177.871L552.472 177.16L552.675 177.079L552.871 176.98L554.469 176.174L556.505 175.353L558.594 174.509L563.812 172.752L570.502 170.499L570.553 170.482L570.603 170.463L576.748 168.246L589.521 164.238L601.925 160.653L608.573 158.858L615.145 157.082L620.816 155.861L620.867 155.85L620.919 155.838L624.016 155.101L624.017 155.102L627.072 154.392L632.8 153.2L632.801 153.201L635.457 152.663L638.116 152.147L647.405 150.347L655.765 149.001L662.289 148.117L662.337 148.111L662.385 148.103L669.924 146.931L669.925 146.932L679.984 145.524L689.84 144.403L699.687 143.45L719.844 142.127L732.376 141.671L744.953 141.631Z" fill="#5795A0" fill-opacity="0.56" stroke="white" stroke-width="10"/>
<path d="M803.614 144.838C799.825 146.928 795.21 148.826 789.925 150.479H791.614V290.902H686.126V151.051C681.657 149.74 677.629 148.259 674.126 146.64V302.902H803.614V144.838Z" fill="#092C4E"/>
<path d="M806.721 1337.53C802.931 1335.44 798.317 1333.55 793.032 1331.89H794.721V1191.47H689.232V1331.32C684.763 1332.63 680.735 1334.11 677.232 1335.73V1179.47H806.721V1337.53Z" fill="#092C4E"/>
<path d="M707.168 148.857H771.912V159.573H707.168V148.857Z" fill="#092C4E"/>
<circle cx="738.87" cy="173.861" r="12.6279" stroke="#092C4E" stroke-width="6"/>
<path d="M710.275 1333.52H775.019V1322.8H710.275V1333.52Z" fill="#092C4E"/>
<circle cx="15.6279" cy="15.6279" r="12.6279" transform="matrix(1 0 0 -1 726.349 1324.14)" stroke="#092C4E" stroke-width="6"/>
<ellipse cx="744.5" cy="750" rx="318.5" ry="318" fill="#092C4E"/>
<g filter="url(#filter0_d_2_2050)">
<path d="M955 653L745.351 543L562 667L577.424 791.87L521 866L746.351 956L940 850L883.424 769.822L955 653Z" fill="#347A99"/>
</g>
<path d="M496 635.099L745.396 751.39M745.396 751.39L994 635.099M745.396 751.39L743.812 475M745.396 751.39V1023M745.396 751.39L990.041 873.256M745.396 751.39L503.917 873.256" stroke="#68A7C3" stroke-opacity="0.3"/>
<path d="M745 474C896.872 474 1020 597.339 1020 749.5C1020 901.661 896.872 1025 745 1025C593.128 1025 470 901.661 470 749.5C470 597.339 593.128 474 745 474Z" stroke="white" stroke-width="8"/>
<path d="M742 1098C757.627 1098 772.241 1106.46 783.155 1121.07C793.106 1134.39 799.744 1152.57 800.839 1173H683.161C684.256 1152.57 690.894 1134.39 700.845 1121.07C711.759 1106.46 726.373 1098 742 1098Z" fill="white" stroke="#092C4E" stroke-width="12"/>
<path d="M739 384C754.627 384 769.241 375.535 780.155 360.927C790.106 347.608 796.744 329.427 797.839 309H680.161C681.256 329.427 687.894 347.608 697.845 360.927C708.759 375.535 723.373 384 739 384Z" fill="white" stroke="#092C4E" stroke-width="12"/>
<path d="M749 143C1081.49 143 1351 410.752 1351 741C1351 1071.25 1081.49 1339 749 1339C416.506 1339 147 1071.25 147 741C147 410.752 416.506 143 749 143Z" stroke="white" stroke-width="6"/>
<ellipse cx="678.721" cy="147.088" rx="27.5" ry="3.5" transform="rotate(-4.0119 678.721 147.088)" fill="white"/>
<ellipse cx="27.5" cy="3.5" rx="27.5" ry="3.5" transform="matrix(-0.99755 -0.0699637 -0.0699637 0.99755 840.355 145.348)" fill="white"/>
<ellipse cx="814.677" cy="1331.42" rx="27.5" ry="3.5" transform="rotate(-4.0119 814.677 1331.42)" fill="white"/>
<ellipse cx="27.5" cy="3.5" rx="27.5" ry="3.5" transform="matrix(-0.99755 -0.0699637 -0.0699637 0.99755 704.355 1327.85)" fill="white"/>
<defs>
<filter id="filter0_d_2_2050" x="517" y="543" width="442" height="421" filterUnits="userSpaceOnUse" color-interpolation-filters="sRGB">
<feFlood flood-opacity="0" result="BackgroundImageFix"/>
<feColorMatrix in="SourceAlpha" type="matrix" values="0 0 0 0 0 0 0 0 0 0 0 0 0 0 0 0 0 0 127 0" result="hardAlpha"/>
<feOffset dy="4"/>
<feGaussianBlur stdDeviation="2"/>
<feComposite in2="hardAlpha" operator="out"/>
<feColorMatrix type="matrix" values="0 0 0 0 0.407843 0 0 0 0 0.654902 0 0 0 0 0.764706 0 0 0 1 0"/>
<feBlend mode="normal" in2="BackgroundImageFix" result="effect1_dropShadow_2_2050"/>
<feBlend mode="normal" in="SourceGraphic" in2="effect1_dropShadow_2_2050" result="shape"/>
</filter>
</defs>
</svg>
